<mxfile host="app.diagrams.net" modified="2022-06-13T10:03:19.805Z" agent="5.0 (Macintosh; Intel Mac OS X 10_15_7) AppleWebKit/537.36 (KHTML, like Gecko) Chrome/102.0.0.0 Safari/537.36" etag="DrhFeaEjBnz8jUZnY5zk" version="18.1.2" type="github">
  <diagram id="DOHwIMiz50qAoAU_zNFB" name="Page-1">
    <mxGraphModel dx="1666" dy="1263" grid="1" gridSize="10" guides="1" tooltips="1" connect="1" arrows="1" fold="1" page="1" pageScale="1" pageWidth="1654" pageHeight="1169" math="0" shadow="0">
      <root>
        <mxCell id="0" />
        <mxCell id="1" parent="0" />
        <mxCell id="9IO7hIec0zjEXyQcJtiJ-1" value="Crawler Service" style="rounded=0;whiteSpace=wrap;html=1;" vertex="1" parent="1">
          <mxGeometry x="150" y="540" width="120" height="60" as="geometry" />
        </mxCell>
        <mxCell id="9IO7hIec0zjEXyQcJtiJ-2" value="Race/Odds/Pool/... Service" style="rounded=0;whiteSpace=wrap;html=1;" vertex="1" parent="1">
          <mxGeometry x="360" y="540" width="120" height="60" as="geometry" />
        </mxCell>
        <mxCell id="9IO7hIec0zjEXyQcJtiJ-3" value="Model Training Service" style="rounded=0;whiteSpace=wrap;html=1;" vertex="1" parent="1">
          <mxGeometry x="560" y="540" width="120" height="60" as="geometry" />
        </mxCell>
        <mxCell id="9IO7hIec0zjEXyQcJtiJ-4" value="Model Hosting Service" style="rounded=0;whiteSpace=wrap;html=1;" vertex="1" parent="1">
          <mxGeometry x="767" y="540" width="120" height="60" as="geometry" />
        </mxCell>
        <mxCell id="9IO7hIec0zjEXyQcJtiJ-5" value="Feature Store &lt;br&gt;Service" style="rounded=0;whiteSpace=wrap;html=1;" vertex="1" parent="1">
          <mxGeometry x="560" y="390" width="120" height="60" as="geometry" />
        </mxCell>
        <mxCell id="9IO7hIec0zjEXyQcJtiJ-6" value="Front-end&lt;br&gt;Service" style="rounded=0;whiteSpace=wrap;html=1;" vertex="1" parent="1">
          <mxGeometry x="970" y="540" width="120" height="60" as="geometry" />
        </mxCell>
      </root>
    </mxGraphModel>
  </diagram>
</mxfile>
